<svg width="1080" height="1080" viewBox="0 0 1080 1080" xmlns="http://www.w3.org/2000/svg">
<g transform="translate(0.000000,1080.000000) scale(0.100000,-0.100000)" fill="#ffffff" stroke="none">
<path d="M450 7715 l0 -3045 495 0 495 0 0 3045 0 3045 -495 0 -495 0 0 -3045z"/>
<path d="M1852 7718 l3 -3043 498 -3 497 -2 0 3045 0 3045 -500 0 -500 0 2&#10;-3042z"/>
<path d="M3260 7715 l0 -3045 498 2 497 3 3 3043 2 3042 -500 0 -500 0 0&#10;-3045z"/>
<path d="M4662 9843 l3 -498 3045 0 3045 0 3 498 2 497 -3050 0 -3050 0 2&#10;-497z"/>
<path d="M4665 8928 c-3 -7 -4 -231 -3 -498 l3 -485 3045 0 3045 0 0 495 0&#10;495 -3043 3 c-2429 2 -3044 0 -3047 -10z"/>
<path d="M4670 7228 c0 -172 -3 -397 -7 -500 l-6 -188 3052 0 3051 0 -2 498&#10;-3 497 -3042 3 -3043 2 0 -312z"/>
<path d="M6530 3085 l0 -3045 500 0 500 0 -2 3043 -3 3042 -497 3 -498 2 0&#10;-3045z"/>
<path d="M7940 3085 l0 -3045 495 0 495 0 0 3045 0 3045 -495 0 -495 0 0&#10;-3045z"/>
<path d="M9347 6123 c-4 -3 -7 -1374 -7 -3045 l0 -3038 495 0 495 0 0 3045 0&#10;3045 -488 0 c-269 0 -492 -3 -495 -7z"/>
<path d="M30 3770 l0 -500 3020 -2 c1661 -1 3030 -2 3043 -2 l22 -1 0 500 0&#10;500 -3042 3 -3043 2 0 -500z"/>
<path d="M30 2360 l0 -500 3045 0 3045 0 0 500 0 500 -3045 0 -3045 0 0 -500z"/>
<path d="M30 950 l0 -500 3045 0 3045 0 0 500 0 500 -3045 0 -3045 0 0 -500z"/>
</g>
</svg>
