<svg width="8641" height="2022" viewBox="0 0 8641 2022" fill="none" xmlns="http://www.w3.org/2000/svg">
<path d="M79.6665 574V1147.33L173.4 1147.6L267 1148V574.267V0.666607H173.4H79.6665V574Z" fill="black"/>
<path d="M344.333 574V1147.33L438.333 1147.6L532.333 1148V574.267V0.666607H438.333H344.333V574Z" fill="black"/>
<path d="M609.667 574.001V1147.33H703.667H797.667V574.001V0.667258H703.667H609.667V574.001Z" fill="black"/>
<path d="M874.333 173.334V267.334H1448.73H2023V173.334V79.334H1448.73H874.333V173.334Z" fill="black"/>
<path d="M7769.67 273.866C7753.53 278.799 7743 293.199 7743.13 309.999C7743.13 314.799 7743.93 320.533 7744.73 322.933C7747.67 330.799 7754.33 338.533 7761.53 342.533C7780.07 352.533 7802.47 345.999 7813.4 327.599C7816.6 322.133 7817 319.999 7817 309.999C7817 300.933 7816.33 297.599 7814.07 293.199C7810.2 285.866 7800.33 277.333 7792.73 274.799C7786.2 272.533 7775.4 272.133 7769.67 273.866Z" fill="black"/>
<path d="M4911.13 288.8C4857.93 294.8 4811.13 314.8 4773.67 347.6C4728.73 386.933 4702.07 436 4690.73 500C4687.4 519.333 4686.07 568.666 4688.2 590.533C4690.2 609.733 4694.73 631.733 4700.33 649.333C4705.93 667.2 4720.87 697.066 4731.93 712.666C4743.13 728.266 4767.93 753.333 4782.6 763.733C4823.8 792.933 4874.33 806.266 4936.33 804.266C4982.87 802.666 5018.2 795.2 5051.4 779.733L5061.67 774.933V746.533V718.266L5048.07 725.2C5012.47 743.2 4978.6 750.533 4931.67 750.533C4907.67 750.533 4901.67 750.133 4889.67 747.466C4855 740 4829.67 726.933 4805.93 704.133C4767.53 667.2 4748.33 616.4 4748.33 551.333C4748.33 487.6 4766.47 436.4 4802.6 398C4836.47 362 4879.27 343.333 4933 341.066C4973.4 339.466 5011 346.933 5046.73 364L5061.67 371.2V340V308.666L5056.73 306.533C5040.2 299.6 5015.13 293.2 4991.67 290C4977 288 4924.73 287.2 4911.13 288.8Z" fill="black"/>
<path d="M2368.33 545.999V796.666H2501.67H2635V769.999V743.333H2531.67H2428.33V655.999V568.666H2519H2609.67V541.999V515.333H2519H2428.33V431.999V348.666H2526.33H2624.33V321.999V295.333H2496.33H2368.33V545.999Z" fill="black"/>
<path d="M6327.67 341.999L6299.67 351.066V394.533V437.999H6268.73H6237.67V461.999V485.999H6268.33H6299V589.599C6299 698.399 6299.93 722.533 6304.33 739.999C6315.93 785.599 6348.47 806.933 6402.2 804.266C6417.93 803.466 6431.53 800.799 6442.07 796.266L6447 794.133V769.999C6447 756.666 6446.6 745.999 6446.07 746.266C6430.2 754.266 6421.8 756.666 6408.87 756.666C6387.53 756.666 6371.13 747.733 6364.33 732.266C6357.8 717.599 6357.67 715.466 6357.67 596.933V485.999H6402.33H6447V461.999V437.999H6402.33H6357.67V385.333C6357.67 356.399 6357.27 332.666 6356.73 332.799C6356.07 332.799 6343.13 336.933 6327.67 341.999Z" fill="black"/>
<path d="M7554.33 341.999L7526.33 351.066V394.533V437.999H7495.4H7464.33V461.999V485.999H7495H7525.67V589.599C7525.67 698.399 7526.6 722.533 7531 739.999C7542.6 785.599 7575.13 806.933 7628.87 804.266C7644.6 803.466 7658.2 800.799 7668.73 796.266L7673.67 794.133V769.999C7673.67 756.666 7673.27 745.999 7672.73 746.266C7656.87 754.266 7648.47 756.666 7635.53 756.666C7614.2 756.666 7597.8 747.733 7591 732.266C7584.47 717.599 7584.33 715.466 7584.33 596.933V485.999H7629H7673.67V461.999V437.999H7629H7584.33V385.333C7584.33 356.399 7583.93 332.666 7583.4 332.799C7582.73 332.799 7569.8 336.933 7554.33 341.999Z" fill="black"/>
<path d="M874.333 438.001V531.334H1448.73H2023V438.001V344.667H1448.73H874.333V438.001Z" fill="black"/>
<path d="M2813 431.466C2759 438.933 2717.93 467.333 2705.4 506C2701.53 518 2700.6 541.733 2703.53 555.333C2706.2 567.733 2712.87 581.866 2720.47 591.2C2733.93 607.6 2761.67 623.466 2809.93 642.533C2822.33 647.333 2836.33 653.333 2841.27 655.866C2859.8 665.2 2872.47 677.333 2877 690.133C2879.67 697.6 2879.53 714.666 2876.73 723.333C2872.2 737.6 2857.8 748.533 2837 753.6C2823.67 756.8 2786.33 756.8 2771.4 753.6C2749.27 748.933 2728.73 740.4 2709.27 727.866L2700.33 722L2700.6 752.933L2701 784L2712.33 788.8C2751.53 805.6 2807.27 809.333 2851.27 798.133C2891.4 787.866 2921.53 764.133 2932.87 733.733C2941.13 712 2940.33 682.933 2931 662.666C2918.73 635.866 2894.2 618.266 2837 595.333C2792.33 577.466 2782.6 572.4 2772.33 561.2C2763.53 551.6 2761.13 544.933 2761 530C2761 518.8 2761.4 516.4 2764.73 509.866C2774.2 490.4 2799.93 478.133 2831.67 478C2860.6 477.866 2894.47 486.533 2915.27 499.333L2921.67 503.333V474.666V445.866L2915.4 443.2C2907.13 439.733 2893 435.866 2878.87 433.2C2865.27 430.666 2825.93 429.6 2813 431.466Z" fill="black"/>
<path d="M3183.67 432C3163.13 435.2 3145.53 442 3129.53 452.667C3118.33 460.133 3100.07 478.8 3091.67 491.2L3085 500.933L3084.6 469.467L3084.33 438H3055.67H3027V700V962H3055.67H3084.33L3084.6 853.067L3085 744.267L3090.2 752.133C3097.93 763.733 3115.53 780.4 3127.8 787.6C3148.87 800.133 3173.53 805.6 3202.33 804.267C3242.07 802.4 3272.87 789.867 3299.27 764.933C3338.47 728 3358.33 669.067 3355.93 597.333C3354.87 564.267 3350.33 541.333 3340.33 517.067C3327.27 484.933 3303.8 458.4 3276.73 444.8C3250.87 431.867 3215.13 426.933 3183.67 432ZM3222.33 481.333C3272.6 494.8 3300.33 545.067 3297.13 617.333C3294.87 669.467 3281.67 705.067 3255.27 730.267C3243.53 741.467 3231.27 748.4 3215.67 752.933C3201.67 756.933 3172.47 757.2 3159.13 753.467C3121.8 743.2 3093.53 711.867 3086.07 672.4C3084.47 663.867 3084.2 653.2 3084.73 618.267C3085.27 568.267 3086.33 561.733 3096.87 540C3113.13 506.667 3138.6 486.667 3173 479.867C3184.73 477.6 3211.27 478.4 3222.33 481.333Z" fill="black"/>
<path d="M3548.33 431.333C3515.8 435.333 3481.67 446.666 3459.4 460.533L3455 463.333V492.666V522L3463.4 515.6C3487.13 497.066 3516.2 484.533 3545.93 480.133C3572.07 476.266 3590.73 477.866 3606.6 485.333C3629.93 496.266 3642.73 520.266 3645.27 557.466L3646.07 569.6L3641.53 570.4C3639 570.933 3611.27 574.8 3579.67 579.333C3522.07 587.333 3505 590.8 3488.33 597.866C3458.2 610.4 3437.13 630.533 3427.8 655.466C3421.8 671.6 3419.93 684.266 3420.6 705.866C3421.13 721.866 3421.93 727.2 3424.6 735.6C3435.93 770.133 3462.6 793.2 3500.73 801.466C3514.33 804.4 3538.73 805.333 3553 803.466C3568.87 801.333 3586.6 795.333 3599.53 787.6C3612.33 780 3629.13 763.866 3638.33 750.133L3645 740.4L3645.4 768.533L3645.67 796.666H3674.33H3703V672.266C3703 590.266 3702.47 543.866 3701.53 536C3694.33 477.6 3665.53 444 3613 433.2C3601.53 430.8 3561.93 429.733 3548.33 431.333ZM3645.67 638.933C3645.67 665.866 3644.47 675.333 3639.13 691.066C3633.67 706.666 3627.93 715.6 3615 728.666C3602.47 741.333 3589.4 749.2 3573.67 753.466C3560.33 757.2 3531.93 756.8 3520.33 752.8C3509.67 749.066 3501.27 743.866 3494.2 736.4C3482.07 723.733 3478.33 712.133 3479.4 691.333C3481.13 658.266 3493.67 644 3530.33 633.333C3537.53 631.2 3560.73 627.333 3588.33 623.333C3613.67 619.733 3636.2 616.666 3638.33 616.266C3640.6 616 3643.13 615.6 3644.07 615.466C3645.27 615.333 3645.67 620.8 3645.67 638.933Z" fill="black"/>
<path d="M3949 430.8C3936.33 432.133 3914.07 437.066 3903.27 440.8C3877.67 449.866 3859 461.733 3839.67 481.2C3812.87 508.266 3797 540.133 3789.53 581.466C3785.67 602.933 3785.27 644.266 3788.87 664C3795.67 701.733 3811.27 732.666 3836.33 758C3869.13 791.066 3913 806.533 3967 804.133C3997.27 802.8 4018.87 797.866 4042.73 786.533L4055 780.666V753.2V725.866L4046.87 731.466C4006.2 759.066 3950.33 764.4 3910.33 744.4C3872.07 725.2 3850.2 689.066 3845.67 637.733C3842.2 597.333 3851 558 3870.07 530C3876.07 521.2 3890.47 506.533 3899.8 499.866C3910.33 492.266 3925 485.466 3938.33 481.733C3947.27 479.333 3952.47 478.933 3970.33 478.933C3989.13 478.933 3993.27 479.333 4005 482.4C4017.67 485.866 4041.67 496.266 4049.67 502C4051.8 503.466 4054.07 504.666 4054.73 504.666C4055.67 504.666 4056.2 494.8 4056.33 476.666L4056.47 448.666L4052.07 446C4046.33 442.533 4024.47 435.6 4011.53 433.2C4001.27 431.333 3959.67 429.733 3949 430.8Z" fill="black"/>
<path d="M4262.33 430.799C4223.53 436.666 4196.33 450.133 4170.33 476.266C4147.67 498.933 4132.47 525.866 4123.93 558.666C4110.33 611.466 4115.93 678.933 4137.67 722.266C4145.4 737.733 4151.8 746.799 4164.07 759.599C4192.07 788.666 4225 802.399 4271.67 804.266C4319.8 806.133 4362.2 796.533 4396.73 775.733L4404.33 771.199V743.999V716.799L4394.47 723.866C4339.4 763.466 4260.87 767.466 4218.33 733.066C4202.6 720.266 4189.4 699.999 4183.13 678.533C4179.93 667.866 4176.33 645.599 4176.33 636.933V631.333H4303H4429.67V610.933C4429.67 542.933 4415.13 498.799 4382.33 466.666C4365.4 449.999 4344.47 439.066 4319.67 433.733C4307.93 431.199 4271.8 429.333 4262.33 430.799ZM4307.53 481.333C4341.27 490.533 4364.73 521.199 4368.87 561.466C4369.4 565.733 4370.07 572.533 4370.47 576.266L4371.13 583.333H4274.47H4177.67V580.133C4177.67 574.133 4184.07 551.599 4188.73 541.733C4195.27 527.599 4203.27 516.133 4214.33 505.333C4228.33 491.466 4245.13 482.666 4263.53 479.333C4273 477.599 4298.07 478.799 4307.53 481.333Z" fill="black"/>
<path d="M5285.27 431.334C5243 436.667 5210.73 450.934 5184.2 476.267C5151.53 507.334 5135 546.001 5130.73 601.601C5126.47 657.867 5139.53 707.734 5168.2 743.601C5201.67 785.867 5251.67 806.801 5313 804.267C5335.8 803.334 5351.27 800.667 5369.67 794.534C5403.13 783.334 5431.4 761.601 5452.07 731.201C5463 715.067 5473.13 690.134 5477.67 668.134C5483.93 638.001 5484.47 599.467 5479 568.134C5466.33 494.401 5421.67 446.934 5352.2 433.334C5339.27 430.801 5299.13 429.601 5285.27 431.334ZM5341 481.867C5392.33 494.667 5420.33 537.067 5423.8 607.334C5425.93 648.801 5417 687.467 5399.27 713.601C5392.73 723.201 5379.4 735.867 5369.13 741.867C5339.53 759.467 5289.4 761.334 5256.73 746.001C5221.93 729.734 5198.87 696.801 5191.4 652.667C5188.6 635.734 5188.6 601.467 5191.53 584.401C5201.4 525.467 5236.07 487.467 5287.67 479.334C5300.2 477.467 5328.73 478.801 5341 481.867Z" fill="black"/>
<path d="M5723.67 431.999C5695.67 437.333 5676.6 447.199 5656.87 466.666C5649.4 473.999 5640.6 484.133 5637.13 489.333L5631 498.666V468.266V437.999H5602.33H5573.67V617.333V796.666H5602.33H5630.87L5631.27 681.599L5631.67 566.666L5634.73 556.133C5640.87 534.799 5650.07 518.933 5664.87 504.399C5680.87 488.533 5700.73 479.866 5724.33 478.399C5767.67 475.866 5796.6 497.599 5807.53 540.799C5813.13 562.666 5813.67 576.266 5813.67 689.599V796.666H5842.47H5871.13L5870.6 671.599C5870.2 566.266 5869.8 544.933 5868.07 535.866C5857 477.866 5830.2 445.466 5783.93 433.866C5769.27 430.133 5738.6 429.199 5723.67 431.999Z" fill="black"/>
<path d="M6069 431.466C6015 438.933 5973.93 467.333 5961.4 506C5957.53 518 5956.6 541.733 5959.53 555.333C5962.2 567.733 5968.87 581.866 5976.47 591.2C5989.93 607.6 6017.67 623.466 6065.93 642.533C6102.2 656.8 6115.67 664.666 6125.93 677.733C6132.47 685.866 6135.13 694.266 6135.13 705.866C6135.13 716.8 6134.33 720.666 6130.2 728.8C6124.33 740.533 6111.8 748.933 6093 753.466C6079.67 756.8 6042.47 756.8 6027.4 753.6C6005.27 748.933 5984.73 740.4 5965.27 727.866L5956.33 722L5956.6 752.933L5957 784L5968.33 788.8C6007.53 805.6 6063.27 809.333 6107.27 798.133C6147.4 787.866 6177.53 764.133 6188.87 733.733C6197.13 712 6196.33 682.933 6187 662.666C6174.73 635.866 6150.2 618.266 6093 595.333C6048.33 577.466 6038.6 572.4 6028.33 561.2C6019.53 551.6 6017.13 544.933 6017 530C6017 518.8 6017.4 516.4 6020.73 509.866C6030.2 490.4 6055.93 478.133 6087.67 478C6116.6 477.866 6150.47 486.533 6171.27 499.333L6177.67 503.333V474.666V445.866L6171.8 443.333C6163.93 440 6148.07 435.6 6134.73 433.2C6121.27 430.666 6081.8 429.733 6069 431.466Z" fill="black"/>
<path d="M7315.67 430.8C7303 432.133 7280.73 437.067 7269.93 440.8C7244.33 449.867 7225.67 461.733 7206.33 481.2C7179.53 508.267 7163.67 540.133 7156.2 581.467C7152.33 602.933 7151.93 644.267 7155.53 664C7162.33 701.733 7178.07 733.067 7203 758C7236.07 791.2 7279.67 806.533 7333.67 804.133C7363.93 802.8 7385.53 797.867 7409.4 786.533L7421.67 780.667V753.2V725.867L7413.53 731.467C7372.73 759.067 7317 764.4 7277 744.4C7238.47 725.067 7216.47 688.667 7212.33 636.8C7209 596 7217.8 558 7236.73 530C7242.73 521.2 7257.13 506.533 7266.47 499.867C7277 492.267 7291.67 485.467 7305 481.733C7313.93 479.333 7319.13 478.933 7337 478.933C7355.8 478.933 7359.93 479.333 7371.67 482.4C7384.47 485.867 7408.33 496.4 7416.47 502.133C7418.6 503.6 7420.87 504.533 7421.67 504C7422.33 503.6 7422.87 492 7422.87 475.867V448.533L7418.73 446C7412.6 442.267 7391.67 435.733 7378.2 433.2C7366.73 431.2 7327.13 429.6 7315.67 430.8Z" fill="black"/>
<path d="M8054.6 431.334C8012.47 436.668 7980.07 451.068 7953.53 476.268C7919.93 508.268 7902.6 550.534 7899.67 608.001C7897.93 640.668 7903 675.601 7913.13 700.934C7940.6 770.001 8002.2 807.468 8082.33 804.268C8105.13 803.334 8120.6 800.668 8139 794.534C8166.6 785.334 8190.6 769.068 8208.87 747.334C8219.93 734.001 8224.33 727.334 8231.4 713.201C8246.87 682.268 8253.4 648.134 8251.93 606.001C8248.73 510.001 8202.87 449.334 8121.53 433.334C8108.6 430.801 8068.47 429.601 8054.6 431.334ZM8110.33 481.868C8161.67 494.668 8189.67 537.068 8193.13 607.334C8195.27 648.801 8186.33 687.468 8168.6 713.601C8162.07 723.201 8148.73 735.868 8138.47 741.868C8108.87 759.468 8058.73 761.334 8026.07 746.001C7991.27 729.734 7968.2 696.801 7960.73 652.668C7957.93 635.868 7957.93 601.601 7960.87 584.401C7970.6 525.468 8005.4 487.468 8057 479.334C8069.53 477.468 8098.07 478.801 8110.33 481.868Z" fill="black"/>
<path d="M8497.13 431.333C8467 436.133 8446.2 446.533 8425.53 467.199C8418.47 474.266 8409.93 484.133 8406.6 489.333L8400.33 498.666V468.266V437.999H8371.67H8343V617.333V796.666H8371.67H8400.2L8400.6 681.599L8401 566.666L8404.07 556.133C8410.2 534.799 8419.4 518.933 8434.2 504.399C8450.2 488.533 8470.07 479.866 8493.67 478.399C8537 475.866 8565.93 497.466 8577 540.933C8582.33 562.399 8583 577.733 8583 690.266V796.666H8611.8H8640.47L8639.93 671.599C8639.53 566.266 8639.13 544.933 8637.4 535.866C8626.33 477.866 8599.53 445.333 8553.27 433.866C8540.73 430.799 8509.93 429.333 8497.13 431.333Z" fill="black"/>
<path d="M6658.33 434.533C6642.6 438.133 6628.6 445.999 6615.13 458.666C6603 470.133 6595.53 482.133 6583.27 509.999C6582.2 512.533 6581.8 504.133 6581.8 475.599L6581.67 437.999H6553H6524.33V617.333V796.666H6553H6581.53L6582.07 688.933L6582.47 581.333L6586.07 566.933C6596.47 524.399 6620.47 495.333 6651.13 487.999C6667.8 484.133 6687.67 486.133 6702.07 493.066L6711 497.599L6710.73 467.466L6710.33 437.466L6704.33 435.599C6695.67 432.933 6668.2 432.266 6658.33 434.533Z" fill="black"/>
<path d="M6764.73 562.933C6765.27 697.733 6765.13 695.333 6772.47 720C6789.93 778.533 6833.27 807.333 6899 804.267C6919.93 803.2 6934.87 799.733 6950.33 792C6969.93 782.267 6986.07 767.333 6998.47 747.2L7003.67 738.8L7004.07 767.733L7004.33 796.667H7033H7061.67V617.333V438H7033H7004.47L7003.93 552.933C7003.4 678.667 7003.67 674.533 6995.4 695.067C6984.33 722.933 6963.13 743.733 6937.13 752.267C6927.67 755.333 6924.2 755.733 6908.33 755.867C6895 755.867 6888.07 755.333 6881.67 753.467C6855.53 746.267 6837.27 727.467 6828.33 698.667C6821.93 677.733 6821.67 671.6 6821.67 550.933V438H6793H6764.2L6764.73 562.933Z" fill="black"/>
<path d="M7751 617.333V796.666H7779.67H7808.33V617.333V437.999H7779.67H7751V617.333Z" fill="black"/>
<path d="M874.733 702.666L874.333 796.666H1448.73H2023V702.666V608.666H1449H875L874.733 702.666Z" fill="black"/>
<path d="M1225.67 1448V2022H1319.67H1413.67V1448V874H1319.67H1225.67V1448Z" fill="black"/>
<path d="M1491 1448V2022H1585H1679V1448V874H1585H1491V1448Z" fill="black"/>
<path d="M1756.33 1448V2022H1849.67H1943V1448V874H1849.67H1756.33V1448Z" fill="black"/>
<path d="M3401.67 1460.67V1726H3430.33H3458.87L3459.27 1611.6C3459.67 1497.87 3459.8 1497.33 3462.73 1486.67C3474.6 1444.27 3505.27 1414.4 3543.13 1408.53C3555 1406.67 3574.07 1407.73 3584.33 1410.8C3610.07 1418.4 3627.93 1438.8 3635.67 1469.2C3641.13 1490.67 3641.67 1504.67 3641.67 1618.27V1726H3670.33H3699.13L3698.6 1600.27C3698.2 1488.27 3697.93 1473.33 3695.93 1462C3686.33 1409.6 3663.53 1379.33 3623.67 1366.13C3592.6 1355.87 3549.93 1357.73 3521.13 1370.53C3501.27 1379.33 3481 1396.53 3466.47 1417.2L3459 1427.6V1311.47V1195.33H3430.33H3401.67V1460.67Z" fill="black"/>
<path d="M3825.67 1203.2C3809.53 1208.13 3799 1222.53 3799.13 1239.33C3799.13 1244.13 3799.93 1249.87 3800.73 1252.27C3803.67 1260.13 3810.33 1267.87 3817.53 1271.87C3836.07 1281.87 3858.47 1275.33 3869.4 1256.93C3872.6 1251.47 3873 1249.33 3873 1239.33C3873 1225.73 3870.47 1219.87 3860.87 1211.47C3851.67 1203.47 3836.73 1199.87 3825.67 1203.2Z" fill="black"/>
<path d="M0.333008 1318.67V1412.67L574.333 1412.93L1148.33 1413.33V1318.93V1224.67H574.333H0.333008V1318.67Z" fill="black"/>
<path d="M2502.47 1226.93C2501.93 1228.27 2459 1340 2407 1475.33C2355 1610.67 2312.07 1722.4 2311.53 1723.6C2310.73 1725.87 2312.87 1726 2343.4 1726H2376.2L2378.73 1718.93C2380.2 1715.2 2391.4 1683.6 2403.8 1648.93L2426.2 1586L2532.87 1586.27L2639.53 1586.67L2665.8 1656L2692.2 1725.33L2724.87 1725.73L2757.67 1726L2755 1719.07C2753.53 1715.2 2710.07 1602.53 2658.47 1468.67L2564.6 1225.33L2533.93 1224.93C2505.67 1224.67 2503.27 1224.8 2502.47 1226.93ZM2536.73 1302.8C2538.6 1310.93 2554.87 1356.93 2579.53 1423.73C2601.4 1482.93 2619.13 1531.73 2618.73 1532C2618.33 1532.4 2579.4 1532.53 2532.2 1532.4L2446.33 1532L2485.93 1424C2507.67 1364.53 2526.73 1310.53 2528.33 1304C2532.6 1285.6 2532.73 1285.07 2533.27 1287.47C2533.53 1288.53 2535.13 1295.47 2536.73 1302.8Z" fill="black"/>
<path d="M4026.33 1271.33C4003.8 1278.67 3998.33 1280.93 3998.2 1282.93C3998.07 1284.27 3997.93 1303.73 3997.8 1326.27L3997.67 1367.33H3967H3936.33V1391.33V1415.33H3967H3997.67V1518.93C3997.67 1627.73 3998.6 1651.87 4003 1669.33C4014.6 1714.93 4047.13 1736.27 4100.87 1733.6C4116.6 1732.8 4130.2 1730.13 4140.73 1725.6L4145.67 1723.47V1699.33C4145.67 1686 4145.27 1675.33 4144.73 1675.6C4128.87 1683.6 4120.47 1686 4107.53 1686C4086.2 1686 4069.8 1677.07 4063 1661.6C4056.47 1646.93 4056.33 1644.8 4056.33 1526.27V1415.33H4101H4145.67V1391.33V1367.33H4101H4056.33V1314.67C4056.33 1285.73 4055.93 1262 4055.4 1262.13C4054.73 1262.13 4041.8 1266.27 4026.33 1271.33Z" fill="black"/>
<path d="M4974.33 1271.33C4959 1276.27 4946.2 1281.07 4946.2 1281.87C4946.07 1282.67 4945.93 1302.27 4945.8 1325.33L4945.67 1367.33H4915H4884.33V1391.33V1415.33H4915H4945.67V1518.27C4945.67 1627.2 4946.6 1652.13 4951 1669.33C4962.6 1714.93 4995.13 1736.27 5048.87 1733.6C5064.6 1732.8 5078.2 1730.13 5088.73 1725.6L5093.67 1723.47V1699.33C5093.67 1686 5093.27 1675.33 5092.73 1675.6C5076.87 1683.6 5068.47 1686 5055.53 1686C5034.2 1686 5017.8 1677.07 5011 1661.6C5004.47 1646.93 5004.33 1644.8 5004.33 1526.27V1415.33H5049H5093.67V1391.33V1367.33H5049H5004.33V1314.67C5004.33 1285.73 5003.93 1262 5003.4 1262.13C5002.73 1262.13 4989.8 1266.27 4974.33 1271.33Z" fill="black"/>
<path d="M3209 1360.13C3196.33 1361.47 3174.07 1366.4 3163.27 1370.13C3137.67 1379.2 3119 1391.07 3099.67 1410.53C3072.87 1437.6 3057 1469.47 3049.53 1510.8C3045.67 1532.27 3045.27 1573.6 3048.87 1593.33C3055.67 1631.07 3071.4 1662.4 3096.33 1687.33C3129.4 1720.53 3173 1735.87 3227 1733.47C3257.27 1732.13 3278.87 1727.2 3302.73 1715.87L3315 1710V1682.53V1655.2L3306.87 1660.8C3266.07 1688.4 3210.33 1693.73 3170.33 1673.73C3132.07 1654.53 3110.07 1618.27 3105.67 1567.07C3103.4 1540.8 3107.27 1508.13 3114.87 1489.07C3122.47 1469.87 3130.2 1457.47 3142.87 1444.13C3158.47 1427.87 3176.73 1417.07 3198.33 1411.07C3207.27 1408.67 3212.47 1408.27 3230.33 1408.27C3249.13 1408.27 3253.27 1408.67 3265 1411.73C3277.67 1415.2 3301.67 1425.6 3309.67 1431.33C3311.8 1432.8 3314.07 1434 3314.87 1434C3315.8 1434 3316.2 1424.8 3316.2 1406V1377.87L3312.07 1375.33C3305.93 1371.6 3285 1365.07 3271.53 1362.53C3260.07 1360.53 3220.47 1358.93 3209 1360.13Z" fill="black"/>
<path d="M4345.67 1360C4344.6 1360.27 4339.13 1361.2 4333.67 1362C4295.8 1368.13 4260.2 1390.8 4235 1424.8C4206.6 1463.2 4194.07 1514.13 4198.87 1572C4203.4 1625.6 4219 1663.47 4248.73 1692.27C4276.73 1719.47 4307.93 1731.73 4353 1733.6C4401.27 1735.47 4443.4 1725.87 4478.07 1705.07L4485.67 1700.53V1673.33V1646.13L4475.8 1653.2C4420.73 1692.8 4342.2 1696.8 4299.67 1662.4C4283.93 1649.6 4270.73 1629.33 4264.47 1607.87C4261.27 1597.2 4257.67 1574.93 4257.67 1566.27V1560.67H4384.33H4511V1540.27C4511 1472.13 4496.6 1428.27 4463.67 1396C4446.73 1379.33 4425.8 1368.4 4401 1363.07C4390.07 1360.8 4351.4 1358.53 4345.67 1360ZM4388.87 1410.67C4422.6 1419.87 4446.07 1450.53 4450.2 1490.8C4450.73 1495.07 4451.4 1501.87 4451.8 1505.6L4452.47 1512.67H4355.8H4259V1509.47C4259 1503.47 4265.4 1480.93 4270.07 1471.07C4276.6 1456.8 4284.6 1445.47 4295.67 1434.67C4310.07 1420.67 4326.47 1412 4344.87 1408.67C4354.33 1406.93 4379.4 1408.13 4388.87 1410.67Z" fill="black"/>
<path d="M4735.67 1360.27C4724.07 1361.33 4701 1366.27 4689.93 1370.13C4664.33 1379.2 4645.67 1391.07 4626.33 1410.53C4599.53 1437.6 4583.67 1469.47 4576.2 1510.8C4572.33 1532.27 4571.93 1573.6 4575.53 1593.33C4582.33 1631.07 4597.93 1662.13 4622.87 1687.2C4655.93 1720.4 4699.53 1735.87 4753.67 1733.47C4783.93 1732.13 4805.53 1727.2 4829.4 1715.87L4841.67 1710V1682.53V1655.2L4833.53 1660.8C4792.87 1688.4 4737 1693.73 4697 1673.73C4658.47 1654.4 4636.73 1618.13 4632.33 1566.4C4629.53 1532.8 4635 1500.53 4647.93 1474.8C4660.47 1449.87 4680.33 1430.13 4704.47 1418.67C4722.2 1410.27 4732.73 1408.27 4757 1408.27C4775.8 1408.27 4779.93 1408.67 4791.67 1411.73C4804.33 1415.2 4828.33 1425.6 4836.33 1431.33C4838.47 1432.8 4840.73 1434 4841.53 1434C4842.6 1434 4842.87 1425.33 4842.6 1405.6L4842.33 1377.33L4835 1373.73C4812.6 1362.8 4770.6 1357.2 4735.67 1360.27Z" fill="black"/>
<path d="M5945.67 1360C5944.6 1360.27 5939.13 1361.2 5933.67 1362C5895.8 1368.13 5860.2 1390.8 5835 1424.8C5806.6 1463.2 5794.07 1514.13 5798.87 1572C5803.4 1625.6 5819 1663.47 5848.73 1692.27C5876.73 1719.47 5907.93 1731.73 5953 1733.6C6001.27 1735.47 6043.4 1725.87 6078.07 1705.07L6085.67 1700.53V1673.33V1646.13L6075.8 1653.2C6020.73 1692.8 5942.2 1696.8 5899.67 1662.4C5883.93 1649.6 5870.73 1629.33 5864.47 1607.87C5861.27 1597.2 5857.67 1574.93 5857.67 1566.27V1560.67H5984.33H6111V1540.27C6111 1472.13 6096.6 1428.27 6063.67 1396C6046.73 1379.33 6025.8 1368.4 6001 1363.07C5990.07 1360.8 5951.4 1358.53 5945.67 1360ZM5988.87 1410.67C6022.6 1419.87 6046.07 1450.53 6050.2 1490.8C6050.73 1495.07 6051.4 1501.87 6051.8 1505.6L6052.47 1512.67H5955.8H5859V1509.47C5859 1503.47 5865.4 1480.93 5870.07 1471.07C5876.6 1456.8 5884.6 1445.47 5895.67 1434.67C5910.07 1420.67 5926.47 1412 5944.87 1408.67C5954.33 1406.93 5979.4 1408.13 5988.87 1410.67Z" fill="black"/>
<path d="M2957 1363.87C2941.27 1367.47 2927.27 1375.33 2913.8 1388C2901.67 1399.47 2894.2 1411.47 2881.93 1439.33C2880.87 1441.87 2880.47 1433.47 2880.47 1404.93L2880.33 1367.33H2851.67H2823V1546.67V1726H2851.67H2880.2L2880.73 1618.27L2881.13 1510.67L2884.73 1496.27C2895.13 1453.73 2919.13 1424.67 2949.8 1417.33C2966.47 1413.47 2986.33 1415.47 3000.73 1422.4L3009.67 1426.93L3009.4 1396.8L3009 1366.8L3003 1364.93C2994.33 1362.27 2966.87 1361.6 2957 1363.87Z" fill="black"/>
<path d="M5709 1363.87C5693.27 1367.47 5679.27 1375.33 5665.8 1388C5653.67 1399.47 5646.2 1411.47 5633.93 1439.33C5632.87 1441.87 5632.47 1433.47 5632.47 1404.93L5632.33 1367.33H5603.67H5575V1546.67V1726H5603.67H5632.2L5632.73 1618.27L5633.13 1510.67L5636.73 1496.27C5647.13 1453.73 5671.13 1424.67 5701.8 1417.33C5718.47 1413.47 5738.33 1415.47 5752.73 1422.4L5761.67 1426.93L5761.4 1396.8L5761 1366.8L5755 1364.93C5746.33 1362.27 5718.87 1361.6 5709 1363.87Z" fill="black"/>
<path d="M3807 1546.67V1726H3835.67H3864.33V1546.67V1367.33H3835.67H3807V1546.67Z" fill="black"/>
<path d="M5163.4 1492.27C5163.93 1627.07 5163.8 1624.67 5171.13 1649.33C5188.6 1707.87 5231.93 1736.67 5297.67 1733.6C5318.6 1732.53 5333.53 1729.07 5349 1721.33C5368.6 1711.6 5384.73 1696.67 5397.13 1676.53L5402.33 1668.13L5402.73 1697.07L5403 1726H5431.67H5460.33V1546.67V1367.33H5431.67H5403.13L5402.6 1482.27C5402.07 1608 5402.33 1603.87 5394.07 1624.4C5383 1652.13 5361.67 1673.07 5335.93 1681.47C5326.33 1684.67 5322.87 1685.07 5307 1685.2C5293.67 1685.2 5286.73 1684.67 5280.33 1682.8C5254.2 1675.6 5235.93 1656.8 5227 1628C5220.6 1607.07 5220.33 1600.93 5220.33 1480.27V1367.33H5191.67H5162.87L5163.4 1492.27Z" fill="black"/>
<path d="M0.333008 1584V1678H574.333H1148.33V1584V1490H574.333H0.333008V1584Z" fill="black"/>
<path d="M0.333008 1849.33V1943.33H574.333H1148.33V1849.33V1755.33H574.333H0.333008V1849.33Z" fill="black"/>
</svg>
